<mxfile host="app.diagrams.net" modified="2023-10-10T19:29:06.880Z" agent="Mozilla/5.0 (Windows NT 10.0; Win64; x64) AppleWebKit/537.36 (KHTML, like Gecko) Chrome/117.0.0.0 Safari/537.36 Edg/117.0.2045.47" etag="QF8Y1ZCKClAWdqxxQPhi" version="22.0.4" type="github">
  <diagram name="PÃ¡gina-1" id="vCq6zs7CrHMmV6JF6-9W">
    <mxGraphModel dx="2252" dy="695" grid="0" gridSize="10" guides="1" tooltips="1" connect="1" arrows="1" fold="1" page="0" pageScale="1" pageWidth="827" pageHeight="1169" math="0" shadow="0">
      <root>
        <mxCell id="0" />
        <mxCell id="1" parent="0" />
        <mxCell id="Tj51BT58kHfH4cU9sa8p-1" value="" style="rounded=0;whiteSpace=wrap;html=1;fontSize=16;" vertex="1" parent="1">
          <mxGeometry x="-417" y="3" width="1451" height="441" as="geometry" />
        </mxCell>
        <mxCell id="Tj51BT58kHfH4cU9sa8p-2" value="&lt;h1&gt;&lt;br style=&quot;border-color: var(--border-color); font-size: 16px; font-weight: 400; text-align: center;&quot;&gt;Sistema de Eficiencia y Eficacia de una Plataforma de Sistemas Operativos en la nube&lt;br style=&quot;border-color: var(--border-color); font-size: 16px; font-weight: 400; text-align: center;&quot;&gt;&lt;/h1&gt;" style="text;html=1;strokeColor=none;fillColor=none;spacing=5;spacingTop=-20;whiteSpace=wrap;overflow=hidden;rounded=0;fontSize=16;" vertex="1" parent="1">
          <mxGeometry x="-343" y="14" width="1319" height="120" as="geometry" />
        </mxCell>
      </root>
    </mxGraphModel>
  </diagram>
</mxfile>
